<?xml version="1.0" encoding="UTF-8"?>
<svg width="240px" height="56px" viewBox="0 0 240 56" version="1.1" xmlns="http://www.w3.org/2000/svg" xmlns:xlink="http://www.w3.org/1999/xlink">
    <!-- Generator: Sketch 62 (91390) - https://sketch.com -->
    <title>img_menu_amarketi_logo</title>
    <desc>Created with Sketch.</desc>
    <defs>
        <polygon id="path-1" points="0 30.9677419 240 30.9677419 240 0.324129032 0 0.324129032"></polygon>
    </defs>
    <g id="img_menu_amarketi_logo" stroke="none" stroke-width="1" fill="none" fill-rule="evenodd">
        <g id="Group-16" transform="translate(0.000000, 2.000000)">
            <path d="M14.0890909,1.03246452 L0,31.6760774 L6.44836364,31.6760774 L9.37745455,24.6639484 L23.4196364,24.6639484 L26.4381818,31.6760774 L33.024,31.6760774 L19.0734545,1.03246452 L14.0890909,1.03246452 Z M16.4214545,7.52330323 L21.4069091,19.9898839 L11.3443636,19.9898839 L16.4214545,7.52330323 Z" id="Fill-1" fill="#FF178D"></path>
            <polygon id="Fill-2" fill="#F6C142" points="64.0832727 1.03246452 55.3472727 22.4993032 46.7007273 1.03246452 37.9189091 1.03246452 37.9189091 31.6760774 43.4083636 31.6760774 43.4083636 6.22575484 43.5 6.22575484 53.3334545 31.6760774 57.36 31.6760774 67.1945455 6.22575484 67.2861818 6.22575484 67.2861818 31.6760774 72.7734545 31.6760774 72.7734545 1.03246452"></polygon>
            <path d="M91.7558182,1.03246452 L77.6678182,31.6760774 L84.1161818,31.6760774 L87.0452727,24.6639484 L101.088545,24.6639484 L104.106,31.6760774 L110.691818,31.6760774 L96.7412727,1.03246452 L91.7558182,1.03246452 Z M94.0892727,7.52330323 L99.0758182,19.9898839 L89.0121818,19.9898839 L94.0892727,7.52330323 Z" id="Fill-3" fill="#F6C142"></path>
            <g id="Group-15" transform="translate(0.000000, 0.707923)">
                <path d="M125.6964,13.3090065 C126.518945,13.3090065 127.342582,13.2728774 128.165127,13.2006194 C128.988764,13.1283613 129.743673,12.9549419 130.428764,12.6813935 C131.116036,12.4068129 131.673491,11.9887484 132.100036,11.4261677 C132.526582,10.8635871 132.7404,10.0770065 132.7404,9.06745806 C132.7404,8.17249032 132.540764,7.45094194 132.145855,6.9028129 C131.747673,6.35571613 131.230582,5.94384516 130.590218,5.67029677 C129.948764,5.39571613 129.240764,5.21507097 128.464036,5.12836129 C127.685127,5.04165161 126.930218,4.99829677 126.199309,4.99829677 L121.212764,4.99829677 L121.212764,13.3090065 L125.6964,13.3090065 Z M115.449491,0.324232258 L126.702218,0.324232258 C128.256764,0.324232258 129.758945,0.461522581 131.207673,0.735070968 C132.655309,1.00965161 133.943673,1.47829677 135.072764,2.14203871 C136.200764,2.80578065 137.099673,3.69971613 137.771673,4.82487742 C138.441491,5.95107097 138.777491,7.37971613 138.777491,9.1108129 C138.777491,11.3332645 138.1284,13.1944258 136.833491,14.6942968 C135.537491,16.1941677 133.685127,17.1035871 131.275309,17.4204903 L139.876036,30.9668129 L132.923673,30.9668129 L125.421491,17.983071 L121.212764,17.983071 L121.212764,30.9668129 L115.449491,30.9668129 L115.449491,0.324232258 Z" id="Fill-4" fill="#F6C142"></path>
                <polygon id="Fill-6" fill="#F6C142" points="145.409455 0.324129032 151.171636 0.324129032 151.171636 13.3089032 151.447636 13.3089032 164.848364 0.324129032 172.624364 0.324129032 157.484727 14.4774194 173.631273 30.9677419 165.535636 30.9677419 151.493455 15.9060645 151.171636 15.9060645 151.171636 30.9677419 145.409455 30.9677419"></polygon>
                <polygon id="Fill-8" fill="#F6C142" points="177.885273 0.324129032 199.339091 0.324129032 199.339091 5.25832258 183.648545 5.25832258 183.648545 12.7896774 198.514364 12.7896774 198.514364 17.7228387 183.648545 17.7228387 183.648545 26.0335484 200.161636 26.0335484 200.161636 30.9677419 177.885273 30.9677419"></polygon>
                <polygon id="Fill-10" fill="#F6C142" points="213.607745 5.25863226 203.681564 5.25863226 203.681564 0.32443871 229.298291 0.32443871 229.298291 5.25863226 219.372109 5.25863226 219.372109 30.9670194 213.607745 30.9670194"></polygon>
                <mask id="mask-2" fill="white">
                    <use xlink:href="#path-1"></use>
                </mask>
                <g id="Clip-13"></g>
                <polygon id="Fill-12" fill="#F6C142" mask="url(#mask-2)" points="234.237818 30.9677419 240 30.9677419 240 0.324129032 234.237818 0.324129032"></polygon>
                <polygon id="Fill-14" fill="#FF178D" mask="url(#mask-2)" points="234.237818 6.0923871 240 6.0923871 240 0.324129032 234.237818 0.324129032"></polygon>
            </g>
        </g>
        <g id="Group" transform="translate(0.000000, 44.000000)" fill="#797979">
            <path d="M1.06851016,4.44503306 L2.78999876,4.44503306 C3.26489216,4.44503306 3.66736433,4.39990909 3.99978971,4.31073554 C4.33102786,4.22156198 4.59578093,4.10230579 4.7928617,3.9551157 C4.99112969,3.80685124 5.13478495,3.63280165 5.22382746,3.43081818 C5.31286998,3.22990909 5.35679762,3.0128843 5.35679762,2.7797438 C5.35679762,2.55627273 5.31286998,2.34354545 5.22382746,2.14156198 C5.13478495,1.94065289 4.99112969,1.76338017 4.7928617,1.61081818 C4.59578093,1.45933058 4.33102786,1.34007438 3.99978971,1.25519835 C3.66736433,1.17032231 3.26489216,1.12842149 2.78999876,1.12842149 L1.06851016,1.12842149 L1.06851016,4.44503306 Z M-6.67253367e-14,0.240983471 L3.0571263,0.240983471 C4.12563646,0.240983471 4.96857226,0.451561983 5.58712092,0.872719008 C6.20566958,1.29387603 6.51435029,1.92883471 6.51435029,2.7797438 C6.51435029,3.63065289 6.20566958,4.26776033 5.58712092,4.69321488 C4.96857226,5.11866942 4.12563646,5.33139669 3.0571263,5.33139669 L1.06851016,5.33139669 L1.06851016,9.74924793 L-6.67253367e-14,9.74924793 L-6.67253367e-14,0.240983471 Z" id="Fill-17"></path>
            <polygon id="Fill-18" points="10.0318857 8.86320661 14.929224 8.86320661 14.929224 9.74957025 8.96337558 9.74957025 8.96337558 0.241305785 10.0318857 0.241305785"></polygon>
            <path d="M18.2086004,6.36559504 L22.7652026,6.36559504 L20.4940249,1.36972727 L18.2086004,6.36559504 Z M16.65095,9.74989256 L15.4043548,9.74989256 L19.9752039,0.241628099 L21.0140332,0.241628099 L25.5848822,9.74989256 L24.338287,9.74989256 L23.1795471,7.25195868 L17.8085027,7.25195868 L16.65095,9.74989256 Z" id="Fill-19"></path>
            <polygon id="Fill-20" points="29.8136893 9.74978512 28.7451791 9.74978512 28.7451791 1.1278843 25.2274062 1.1278843 25.2274062 0.241520661 33.330275 0.241520661 33.330275 1.1278843 29.8136893 1.1278843"></polygon>
            <polygon id="Fill-21" points="36.4767999 9.74978512 35.4082898 9.74978512 35.4082898 0.241520661 41.744555 0.241520661 41.744555 1.1278843 36.4767999 1.1278843 36.4767999 4.36391736 41.3741382 4.36391736 41.3741382 5.25135537 36.4767999 5.25135537"></polygon>
            <path d="M53.1873491,4.99586777 C53.1873491,4.45008264 53.0888087,3.92793388 52.8905407,3.43049587 C52.6922727,2.93413223 52.4085239,2.49793388 52.0369198,2.12190083 C51.666503,1.74586777 51.2129798,1.4461157 50.6787247,1.22157025 C50.1444696,0.998099174 49.541355,0.886363636 48.8681936,0.886363636 C48.1950322,0.886363636 47.5931048,0.998099174 47.0576625,1.22157025 C46.5234074,1.4461157 46.0710714,1.74586777 45.7006546,2.12190083 C45.3290505,2.49793388 45.0453017,2.93413223 44.8470337,3.43049587 C44.6487657,3.92793388 44.5502253,4.45008264 44.5502253,4.99586777 C44.5502253,5.54165289 44.6487657,6.06380165 44.8470337,6.56016529 C45.0453017,7.05652893 45.3290505,7.49380165 45.7006546,7.86983471 C46.0710714,8.24586777 46.5234074,8.54561983 47.0576625,8.76909091 C47.5931048,8.99363636 48.1950322,9.1053719 48.8681936,9.1053719 C49.541355,9.1053719 50.1444696,8.99363636 50.6787247,8.76909091 C51.2129798,8.54561983 51.666503,8.24586777 52.0369198,7.86983471 C52.4085239,7.49380165 52.6922727,7.05652893 52.8905407,6.56016529 C53.0888087,6.06380165 53.1873491,5.54165289 53.1873491,4.99586777 M54.3449018,4.99586777 C54.3449018,5.72107438 54.2059954,6.38826446 53.92937,6.99636364 C53.6527446,7.60553719 53.2692682,8.13090909 52.7789408,8.5746281 C52.2898006,9.01834711 51.7104306,9.36429752 51.0432054,9.61570248 C50.3747929,9.86603306 49.6505805,9.99173554 48.8681936,9.99173554 C48.0869939,9.99173554 47.3627815,9.86603306 46.694369,9.61570248 C46.0271438,9.36429752 45.4477738,9.01834711 44.9586336,8.5746281 C44.4683062,8.13090909 44.0848297,7.60553719 43.8082043,6.99636364 C43.5315789,6.38826446 43.3926726,5.72107438 43.3926726,4.99586777 C43.3926726,4.27066116 43.5315789,3.60347107 43.8082043,2.99429752 C44.0848297,2.38619835 44.4683062,1.85975207 44.9586336,1.41603306 C45.4477738,0.97338843 46.0271438,0.626363636 46.694369,0.376033058 C47.3627815,0.125702479 48.0869939,0 48.8681936,0 C49.6505805,0 50.3747929,0.125702479 51.0432054,0.376033058 C51.7104306,0.626363636 52.2898006,0.97338843 52.7789408,1.41603306 C53.2692682,1.85975207 53.6527446,2.38619835 53.92937,2.99429752 C54.2059954,3.60347107 54.3449018,4.27066116 54.3449018,4.99586777" id="Fill-22"></path>
            <path d="M57.9954074,4.44503306 L59.894981,4.44503306 C60.3698744,4.44503306 60.7723466,4.39990909 61.104772,4.31073554 C61.4360101,4.22156198 61.7007632,4.10230579 61.8990312,3.9551157 C62.0961119,3.80685124 62.2397672,3.63280165 62.3288097,3.43081818 C62.4178522,3.22990909 62.4617799,3.0128843 62.4617799,2.7797438 C62.4617799,2.55627273 62.4178522,2.34354545 62.3288097,2.14156198 C62.2397672,1.94065289 62.0961119,1.76338017 61.8990312,1.61081818 C61.7007632,1.45933058 61.4360101,1.34007438 61.104772,1.25519835 C60.7723466,1.17032231 60.3698744,1.12842149 59.894981,1.12842149 L57.9954074,1.12842149 L57.9954074,4.44503306 Z M57.9954074,9.74924793 L56.9268972,9.74924793 L56.9268972,0.240983471 L60.1621085,0.240983471 C61.2306187,0.240983471 62.0735545,0.451561983 62.6921032,0.872719008 C63.3106518,1.29387603 63.6193325,1.92883471 63.6193325,2.7797438 C63.6193325,3.44263636 63.3890092,3.99916529 62.9295499,4.45147934 C62.4700905,4.90379339 61.8040525,5.16594215 60.9338103,5.23685124 L63.9612558,9.74924793 L62.6552989,9.74924793 L59.7762576,5.33139669 L57.9954074,5.33139669 L57.9954074,9.74924793 Z" id="Fill-23"></path>
            <polygon id="Fill-24" points="71.3513095 7.97716529 74.897576 0.241628099 76.5300221 0.241628099 76.5300221 9.74989256 75.4615119 9.74989256 75.4615119 1.5308843 75.4330183 1.5308843 71.6326839 9.74989256 71.0699352 9.74989256 67.2696007 1.5308843 67.2411071 1.5308843 67.2411071 9.74989256 66.1725969 9.74989256 66.1725969 0.241628099 67.805043 0.241628099"></polygon>
            <polygon id="Fill-25" points="85.4646666 9.74978512 84.3961565 9.74978512 84.3961565 0.241520661 90.7324217 0.241520661 90.7324217 1.1278843 85.4646666 1.1278843 85.4646666 4.36391736 90.3620049 4.36391736 90.3620049 5.25135537 85.4646666 5.25135537"></polygon>
            <path d="M102.175216,4.99586777 C102.175216,4.45008264 102.076675,3.92793388 101.878407,3.43049587 C101.680139,2.93413223 101.396391,2.49793388 101.024787,2.12190083 C100.65437,1.74586777 100.200846,1.4461157 99.6665914,1.22157025 C99.1323363,0.998099174 98.5292217,0.886363636 97.8560603,0.886363636 C97.1828989,0.886363636 96.5809715,0.998099174 96.0455292,1.22157025 C95.5112741,1.4461157 95.0589381,1.74586777 94.6885213,2.12190083 C94.3169172,2.49793388 94.0331684,2.93413223 93.8349004,3.43049587 C93.6366324,3.92793388 93.538092,4.45008264 93.538092,4.99586777 C93.538092,5.54165289 93.6366324,6.06380165 93.8349004,6.56016529 C94.0331684,7.05652893 94.3169172,7.49380165 94.6885213,7.86983471 C95.0589381,8.24586777 95.5112741,8.54561983 96.0455292,8.76909091 C96.5809715,8.99363636 97.1828989,9.1053719 97.8560603,9.1053719 C98.5292217,9.1053719 99.1323363,8.99363636 99.6665914,8.76909091 C100.200846,8.54561983 100.65437,8.24586777 101.024787,7.86983471 C101.396391,7.49380165 101.680139,7.05652893 101.878407,6.56016529 C102.076675,6.06380165 102.175216,5.54165289 102.175216,4.99586777 M103.332768,4.99586777 C103.332768,5.72107438 103.193862,6.38826446 102.917237,6.99636364 C102.640611,7.60553719 102.257135,8.13090909 101.766807,8.5746281 C101.277667,9.01834711 100.698297,9.36429752 100.031072,9.61570248 C99.3626596,9.86603306 98.6384472,9.99173554 97.8560603,9.99173554 C97.0748606,9.99173554 96.3506482,9.86603306 95.6822357,9.61570248 C95.0150105,9.36429752 94.4356405,9.01834711 93.9465003,8.5746281 C93.4561729,8.13090909 93.0726964,7.60553719 92.796071,6.99636364 C92.5194456,6.38826446 92.3805393,5.72107438 92.3805393,4.99586777 C92.3805393,4.27066116 92.5194456,3.60347107 92.796071,2.99429752 C93.0726964,2.38619835 93.4561729,1.85975207 93.9465003,1.41603306 C94.4356405,0.97338843 95.0150105,0.626363636 95.6822357,0.376033058 C96.3506482,0.125702479 97.0748606,0 97.8560603,0 C98.6384472,0 99.3626596,0.125702479 100.031072,0.376033058 C100.698297,0.626363636 101.277667,0.97338843 101.766807,1.41603306 C102.257135,1.85975207 102.640611,2.38619835 102.917237,2.99429752 C103.193862,3.60347107 103.332768,4.27066116 103.332768,4.99586777" id="Fill-26"></path>
            <path d="M106.983274,4.44503306 L108.882848,4.44503306 C109.357741,4.44503306 109.760213,4.39990909 110.092639,4.31073554 C110.423877,4.22156198 110.68863,4.10230579 110.886898,3.9551157 C111.083979,3.80685124 111.227634,3.63280165 111.316676,3.43081818 C111.405719,3.22990909 111.449647,3.0128843 111.449647,2.7797438 C111.449647,2.55627273 111.405719,2.34354545 111.316676,2.14156198 C111.227634,1.94065289 111.083979,1.76338017 110.886898,1.61081818 C110.68863,1.45933058 110.423877,1.34007438 110.092639,1.25519835 C109.760213,1.17032231 109.357741,1.12842149 108.882848,1.12842149 L106.983274,1.12842149 L106.983274,4.44503306 Z M106.983274,9.74924793 L105.914764,9.74924793 L105.914764,0.240983471 L109.149975,0.240983471 C110.218485,0.240983471 111.061421,0.451561983 111.67997,0.872719008 C112.298519,1.29387603 112.607199,1.92883471 112.607199,2.7797438 C112.607199,3.44263636 112.376876,3.99916529 111.917417,4.45147934 C111.457957,4.90379339 110.791919,5.16594215 109.921677,5.23685124 L112.949122,9.74924793 L111.643166,9.74924793 L108.764124,5.33139669 L106.983274,5.33139669 L106.983274,9.74924793 Z" id="Fill-27"></path>
            <path d="M120.799467,4.44503306 L122.520955,4.44503306 C122.995849,4.44503306 123.398321,4.39990909 123.730746,4.31073554 C124.061984,4.22156198 124.326737,4.10230579 124.523818,3.9551157 C124.722086,3.80685124 124.865741,3.63280165 124.954784,3.43081818 C125.043826,3.22990909 125.087754,3.0128843 125.087754,2.7797438 C125.087754,2.55627273 125.043826,2.34354545 124.954784,2.14156198 C124.865741,1.94065289 124.722086,1.76338017 124.523818,1.61081818 C124.326737,1.45933058 124.061984,1.34007438 123.730746,1.25519835 C123.398321,1.17032231 122.995849,1.12842149 122.520955,1.12842149 L120.799467,1.12842149 L120.799467,4.44503306 Z M119.730956,0.240983471 L122.788083,0.240983471 C123.856593,0.240983471 124.699529,0.451561983 125.318077,0.872719008 C125.936626,1.29387603 126.245307,1.92883471 126.245307,2.7797438 C126.245307,3.63065289 125.936626,4.26776033 125.318077,4.69321488 C124.699529,5.11866942 123.856593,5.33139669 122.788083,5.33139669 L120.799467,5.33139669 L120.799467,9.74924793 L119.730956,9.74924793 L119.730956,0.240983471 Z" id="Fill-28"></path>
            <path d="M129.762842,4.44503306 L131.662416,4.44503306 C132.137309,4.44503306 132.539781,4.39990909 132.872207,4.31073554 C133.203445,4.22156198 133.468198,4.10230579 133.666466,3.9551157 C133.863547,3.80685124 134.007202,3.63280165 134.096245,3.43081818 C134.185287,3.22990909 134.229215,3.0128843 134.229215,2.7797438 C134.229215,2.55627273 134.185287,2.34354545 134.096245,2.14156198 C134.007202,1.94065289 133.863547,1.76338017 133.666466,1.61081818 C133.468198,1.45933058 133.203445,1.34007438 132.872207,1.25519835 C132.539781,1.17032231 132.137309,1.12842149 131.662416,1.12842149 L129.762842,1.12842149 L129.762842,4.44503306 Z M129.762842,9.74924793 L128.694332,9.74924793 L128.694332,0.240983471 L131.929543,0.240983471 C132.998054,0.240983471 133.840989,0.451561983 134.459538,0.872719008 C135.078087,1.29387603 135.386767,1.92883471 135.386767,2.7797438 C135.386767,3.44263636 135.156444,3.99916529 134.696985,4.45147934 C134.237525,4.90379339 133.571487,5.16594215 132.701245,5.23685124 L135.728691,9.74924793 L134.422734,9.74924793 L131.543693,5.33139669 L129.762842,5.33139669 L129.762842,9.74924793 Z" id="Fill-29"></path>
            <path d="M147.021775,4.99586777 C147.021775,4.45008264 146.923234,3.92793388 146.724966,3.43049587 C146.526698,2.93413223 146.242949,2.49793388 145.871345,2.12190083 C145.500928,1.74586777 145.047405,1.4461157 144.51315,1.22157025 C143.978895,0.998099174 143.37578,0.886363636 142.702619,0.886363636 C142.029458,0.886363636 141.42753,0.998099174 140.892088,1.22157025 C140.357833,1.4461157 139.905497,1.74586777 139.53508,2.12190083 C139.163476,2.49793388 138.879727,2.93413223 138.681459,3.43049587 C138.483191,3.92793388 138.384651,4.45008264 138.384651,4.99586777 C138.384651,5.54165289 138.483191,6.06380165 138.681459,6.56016529 C138.879727,7.05652893 139.163476,7.49380165 139.53508,7.86983471 C139.905497,8.24586777 140.357833,8.54561983 140.892088,8.76909091 C141.42753,8.99363636 142.029458,9.1053719 142.702619,9.1053719 C143.37578,9.1053719 143.978895,8.99363636 144.51315,8.76909091 C145.047405,8.54561983 145.500928,8.24586777 145.871345,7.86983471 C146.242949,7.49380165 146.526698,7.05652893 146.724966,6.56016529 C146.923234,6.06380165 147.021775,5.54165289 147.021775,4.99586777 M148.179327,4.99586777 C148.179327,5.72107438 148.040421,6.38826446 147.763796,6.99636364 C147.48717,7.60553719 147.103694,8.13090909 146.613366,8.5746281 C146.124226,9.01834711 145.544856,9.36429752 144.877631,9.61570248 C144.209218,9.86603306 143.485006,9.99173554 142.702619,9.99173554 C141.921419,9.99173554 141.197207,9.86603306 140.528794,9.61570248 C139.861569,9.36429752 139.282199,9.01834711 138.793059,8.5746281 C138.302732,8.13090909 137.919255,7.60553719 137.64263,6.99636364 C137.366004,6.38826446 137.227098,5.72107438 137.227098,4.99586777 C137.227098,4.27066116 137.366004,3.60347107 137.64263,2.99429752 C137.919255,2.38619835 138.302732,1.85975207 138.793059,1.41603306 C139.282199,0.97338843 139.861569,0.626363636 140.528794,0.376033058 C141.197207,0.125702479 141.921419,0 142.702619,0 C143.485006,0 144.209218,0.125702479 144.877631,0.376033058 C145.544856,0.626363636 146.124226,0.97338843 146.613366,1.41603306 C147.103694,1.85975207 147.48717,2.38619835 147.763796,2.99429752 C148.040421,3.60347107 148.179327,4.27066116 148.179327,4.99586777" id="Fill-30"></path>
            <polygon id="Fill-31" points="151.829833 9.74978512 150.761323 9.74978512 150.761323 0.241520661 157.097588 0.241520661 157.097588 1.1278843 151.829833 1.1278843 151.829833 4.36391736 156.727171 4.36391736 156.727171 5.25135537 151.829833 5.25135537"></polygon>
            <polygon id="Fill-32" points="160.526556 8.86320661 166.150481 8.86320661 166.150481 9.74957025 159.458046 9.74957025 159.458046 0.241305785 165.972396 0.241305785 165.972396 1.12766942 160.526556 1.12766942 160.526556 4.36477686 165.617413 4.36477686 165.617413 5.2511405 160.526556 5.2511405"></polygon>
            <path d="M173.674811,1.81258678 C173.209415,1.19481818 172.531505,0.886471074 171.64108,0.886471074 C171.364454,0.886471074 171.092578,0.91977686 170.82545,0.98638843 C170.558323,1.05407438 170.318502,1.15721488 170.105987,1.29580992 C169.892285,1.43440496 169.721323,1.61382645 169.593102,1.833 C169.464881,2.05217355 169.40077,2.31002479 169.40077,2.60547934 C169.40077,3.0352314 169.53374,3.36828926 169.800868,3.60572727 C170.067995,3.84316529 170.399234,4.0376281 170.79577,4.19019008 C171.191118,4.34167769 171.623271,4.47812397 172.093416,4.59952893 C172.56356,4.72093388 172.9969,4.88101653 173.392249,5.083 C173.788785,5.28390909 174.120023,5.55035537 174.387151,5.88233884 C174.654278,6.21324793 174.787249,6.66556198 174.787249,7.23820661 C174.787249,7.66795868 174.686334,8.05580992 174.483317,8.39961157 C174.2803,8.7444876 174.013172,9.03349587 173.681934,9.26556198 C173.350696,9.49870248 172.979092,9.67812397 172.568309,9.80275207 C172.158714,9.92845455 171.745556,9.99184298 171.330025,9.99184298 C170.686544,9.99184298 170.076306,9.8822562 169.496936,9.66308264 C168.918753,9.44390909 168.426051,9.08291736 168.020018,8.58118182 L168.999485,7.95052066 C169.226247,8.29969421 169.542051,8.57903306 169.946898,8.78961157 C170.350557,9.00019008 170.829012,9.10547934 171.381076,9.10547934 C171.647016,9.10547934 171.914143,9.06680165 172.180084,8.99159504 C172.446024,8.91531405 172.685845,8.80250413 172.89836,8.65531405 C173.109688,8.50704959 173.284211,8.32547934 173.423117,8.11167769 C173.560836,7.89680165 173.629696,7.6507686 173.629696,7.37250413 C173.629696,7.04159504 173.552526,6.76655372 173.40056,6.54630579 C173.246219,6.32713223 173.04439,6.14341322 172.791509,5.99622314 C172.538628,5.84795868 172.252505,5.72547934 171.930765,5.62663636 C171.609024,5.52779339 171.277786,5.43002479 170.935863,5.33118182 C170.595127,5.23341322 170.263889,5.12167769 169.942149,4.99597521 C169.620408,4.87027273 169.334285,4.71126446 169.081404,4.51895041 C168.828524,4.32663636 168.626694,4.08490083 168.473541,3.7937438 C168.3192,3.50258678 168.243217,3.13729752 168.243217,2.69895041 C168.243217,2.24233884 168.339383,1.8437438 168.531715,1.50423967 C168.725234,1.16366116 168.982864,0.882173554 169.303417,0.657628099 C169.625157,0.434157025 169.989638,0.268702479 170.394485,0.161264463 C170.800518,0.0538264463 171.21605,0.000107438017 171.64108,0.000107438017 C172.234697,0.000107438017 172.773701,0.0849834711 173.259279,0.254735537 C173.74367,0.424487603 174.193632,0.72531405 174.609164,1.15506612 L173.674811,1.81258678 Z" id="Fill-33"></path>
            <path d="M182.371534,1.81258678 C181.906138,1.19481818 181.228228,0.886471074 180.337803,0.886471074 C180.061177,0.886471074 179.789301,0.91977686 179.522173,0.98638843 C179.255046,1.05407438 179.015225,1.15721488 178.80271,1.29580992 C178.589008,1.43440496 178.418046,1.61382645 178.289825,1.833 C178.161604,2.05217355 178.097493,2.31002479 178.097493,2.60547934 C178.097493,3.0352314 178.230463,3.36828926 178.497591,3.60572727 C178.764718,3.84316529 179.095956,4.0376281 179.492492,4.19019008 C179.887841,4.34167769 180.319994,4.47812397 180.790139,4.59952893 C181.260283,4.72093388 181.693623,4.88101653 182.088972,5.083 C182.485508,5.28390909 182.816746,5.55035537 183.083874,5.88233884 C183.351001,6.21324793 183.483972,6.66556198 183.483972,7.23820661 C183.483972,7.66795868 183.383057,8.05580992 183.18004,8.39961157 C182.977023,8.7444876 182.709895,9.03349587 182.378657,9.26556198 C182.047419,9.49870248 181.675815,9.67812397 181.265032,9.80275207 C180.855437,9.92845455 180.442279,9.99184298 180.026748,9.99184298 C179.383267,9.99184298 178.773029,9.8822562 178.193659,9.66308264 C177.615476,9.44390909 177.122774,9.08291736 176.71674,8.58118182 L177.696208,7.95052066 C177.92297,8.29969421 178.238774,8.57903306 178.64362,8.78961157 C179.04728,9.00019008 179.525735,9.10547934 180.077799,9.10547934 C180.343739,9.10547934 180.610866,9.06680165 180.876807,8.99159504 C181.142747,8.91531405 181.382568,8.80250413 181.595083,8.65531405 C181.806411,8.50704959 181.980934,8.32547934 182.11984,8.11167769 C182.257559,7.89680165 182.326419,7.6507686 182.326419,7.37250413 C182.326419,7.04159504 182.249249,6.76655372 182.097283,6.54630579 C181.942942,6.32713223 181.741113,6.14341322 181.488232,5.99622314 C181.235351,5.84795868 180.949228,5.72547934 180.627488,5.62663636 C180.305747,5.52779339 179.974509,5.43002479 179.632586,5.33118182 C179.29185,5.23341322 178.960612,5.12167769 178.638872,4.99597521 C178.317131,4.87027273 178.031008,4.71126446 177.778127,4.51895041 C177.525247,4.32663636 177.323417,4.08490083 177.170264,3.7937438 C177.015923,3.50258678 176.93994,3.13729752 176.93994,2.69895041 C176.93994,2.24233884 177.036106,1.8437438 177.228438,1.50423967 C177.421957,1.16366116 177.679587,0.882173554 178.00014,0.657628099 C178.32188,0.434157025 178.686361,0.268702479 179.091208,0.161264463 C179.497241,0.0538264463 179.912773,0.000107438017 180.337803,0.000107438017 C180.931419,0.000107438017 181.470423,0.0849834711 181.956002,0.254735537 C182.440393,0.424487603 182.890355,0.72531405 183.305886,1.15506612 L182.371534,1.81258678 Z" id="Fill-34"></path>
            <polygon id="Fill-35" points="186.097072 9.74989256 187.164395 9.74989256 187.164395 0.241628099 186.097072 0.241628099"></polygon>
            <path d="M199.541186,4.99586777 C199.541186,4.45008264 199.442646,3.92793388 199.244378,3.43049587 C199.047297,2.93413223 198.762361,2.49793388 198.390757,2.12190083 C198.02034,1.74586777 197.568004,1.4461157 197.033749,1.22157025 C196.498307,0.998099174 195.896379,0.886363636 195.223218,0.886363636 C194.550056,0.886363636 193.946942,0.998099174 193.412687,1.22157025 C192.878432,1.4461157 192.426096,1.74586777 192.054492,2.12190083 C191.684075,2.49793388 191.399139,2.93413223 191.202058,3.43049587 C191.00379,3.92793388 190.905249,4.45008264 190.905249,4.99586777 C190.905249,5.54165289 191.00379,6.06380165 191.202058,6.56016529 C191.399139,7.05652893 191.684075,7.49380165 192.054492,7.86983471 C192.426096,8.24586777 192.878432,8.54561983 193.412687,8.76909091 C193.946942,8.99363636 194.550056,9.1053719 195.223218,9.1053719 C195.896379,9.1053719 196.498307,8.99363636 197.033749,8.76909091 C197.568004,8.54561983 198.02034,8.24586777 198.390757,7.86983471 C198.762361,7.49380165 199.047297,7.05652893 199.244378,6.56016529 C199.442646,6.06380165 199.541186,5.54165289 199.541186,4.99586777 M200.699926,4.99586777 C200.699926,5.72107438 200.559832,6.38826446 200.283207,6.99636364 C200.006582,7.60553719 199.623105,8.13090909 199.132778,8.5746281 C198.643638,9.01834711 198.065455,9.36429752 197.397042,9.61570248 C196.729817,9.86603306 196.004417,9.99173554 195.223218,9.99173554 C194.440831,9.99173554 193.716618,9.86603306 193.048206,9.61570248 C192.380981,9.36429752 191.801611,9.01834711 191.312471,8.5746281 C190.822143,8.13090909 190.439854,7.60553719 190.163229,6.99636364 C189.885416,6.38826446 189.74651,5.72107438 189.74651,4.99586777 C189.74651,4.27066116 189.885416,3.60347107 190.163229,2.99429752 C190.439854,2.38619835 190.822143,1.85975207 191.312471,1.41603306 C191.801611,0.97338843 192.380981,0.626363636 193.048206,0.376033058 C193.716618,0.125702479 194.440831,0 195.223218,0 C196.004417,0 196.729817,0.125702479 197.397042,0.376033058 C198.065455,0.626363636 198.643638,0.97338843 199.132778,1.41603306 C199.623105,1.85975207 200.006582,2.38619835 200.283207,2.99429752 C200.559832,3.60347107 200.699926,4.27066116 200.699926,4.99586777" id="Fill-36"></path>
            <polygon id="Fill-37" points="210.880216 8.29926446 210.909897 8.29926446 210.909897 0.241413223 211.979594 0.241413223 211.979594 9.74967769 210.643956 9.74967769 204.380112 1.61124793 204.350432 1.61124793 204.350432 9.74967769 203.283109 9.74967769 203.283109 0.241413223 204.618746 0.241413223"></polygon>
            <path d="M216.652901,6.36559504 L221.209504,6.36559504 L218.938326,1.36972727 L216.652901,6.36559504 Z M215.095251,9.74989256 L213.848656,9.74989256 L218.418318,0.241628099 L219.457147,0.241628099 L224.029183,9.74989256 L222.782588,9.74989256 L221.623848,7.25195868 L216.252804,7.25195868 L215.095251,9.74989256 Z" id="Fill-38"></path>
            <polygon id="Fill-39" points="226.966993 8.86320661 231.864331 8.86320661 231.864331 9.74957025 225.89967 9.74957025 225.89967 0.241305785 226.966993 0.241305785"></polygon>
            <path d="M238.736157,1.81258678 C238.270762,1.19481818 237.592851,0.886471074 236.702426,0.886471074 C236.425801,0.886471074 236.153924,0.91977686 235.886797,0.98638843 C235.619669,1.05407438 235.379848,1.15721488 235.166146,1.29580992 C234.953631,1.43440496 234.783857,1.61382645 234.654448,1.833 C234.526227,2.05217355 234.460929,2.31002479 234.460929,2.60547934 C234.460929,3.0352314 234.596274,3.36828926 234.862214,3.60572727 C235.129342,3.84316529 235.46058,4.0376281 235.857116,4.19019008 C236.252465,4.34167769 236.684618,4.47812397 237.155949,4.59952893 C237.624907,4.72093388 238.058247,4.88101653 238.454783,5.083 C238.850132,5.28390909 239.18137,5.55035537 239.448497,5.88233884 C239.715625,6.21324793 239.848595,6.66556198 239.848595,7.23820661 C239.848595,7.66795868 239.74768,8.05580992 239.544663,8.39961157 C239.341646,8.7444876 239.074519,9.03349587 238.743281,9.26556198 C238.412042,9.49870248 238.040438,9.67812397 237.629656,9.80275207 C237.22006,9.92845455 236.806903,9.99184298 236.390184,9.99184298 C235.74789,9.99184298 235.137652,9.8822562 234.558282,9.66308264 C233.978912,9.44390909 233.487398,9.08291736 233.081364,8.58118182 L234.060832,7.95052066 C234.287593,8.29969421 234.604585,8.57903306 235.007057,8.78961157 C235.411903,9.00019008 235.891546,9.10547934 236.442422,9.10547934 C236.70955,9.10547934 236.97549,9.06680165 237.24143,8.99159504 C237.508558,8.91531405 237.747192,8.80250413 237.959706,8.65531405 C238.171034,8.50704959 238.346745,8.32547934 238.484464,8.11167769 C238.622183,7.89680165 238.691042,7.6507686 238.691042,7.37250413 C238.691042,7.04159504 238.613872,6.76655372 238.461906,6.54630579 C238.308753,6.32713223 238.105736,6.14341322 237.852855,5.99622314 C237.601162,5.84795868 237.313851,5.72547934 236.992111,5.62663636 C236.670371,5.52779339 236.339133,5.43002479 235.997209,5.33118182 C235.656473,5.23341322 235.325235,5.12167769 235.003495,4.99597521 C234.681755,4.87027273 234.395631,4.71126446 234.142751,4.51895041 C233.891057,4.32663636 233.68804,4.08490083 233.5337,3.7937438 C233.380547,3.50258678 233.304564,3.13729752 233.304564,2.69895041 C233.304564,2.24233884 233.40073,1.8437438 233.594249,1.50423967 C233.786581,1.16366116 234.04421,0.882173554 234.364763,0.657628099 C234.686504,0.434157025 235.050984,0.268702479 235.455831,0.161264463 C235.861865,0.0538264463 236.277397,0.000107438017 236.702426,0.000107438017 C237.296043,0.000107438017 237.835047,0.0849834711 238.319438,0.254735537 C238.805017,0.424487603 239.254978,0.72531405 239.67051,1.15506612 L238.736157,1.81258678 Z" id="Fill-40"></path>
        </g>
    </g>
</svg>